<svg width="404" height="332" viewBox="0 0 404 332" fill="none" xmlns="http://www.w3.org/2000/svg">
<path d="M208.604 331.008L276.841 221.948C285.741 208.73 290.98 200.849 303.434 190.056C312.958 181.802 318.333 177.919 328.391 171.292C338.73 164.551 345.974 160.214 354.911 152.818C363.807 142.897 369.587 135.125 380.537 119.444L402.29 84.283C380.534 95.5175 366.646 102.905 339.416 117.656C318.055 129.416 306.205 136.469 285.482 149.838C266.927 161.606 258.902 169.986 247.043 186.787C236.653 205.369 232.566 216.792 226.781 238.039C218.514 273.911 214.586 294.273 208.604 331.008Z" fill="url(#paint0_radial_44_739)"/>
<path d="M202.049 216.287C208.009 197.93 212.316 188.088 222.907 171.888C236.567 153.249 244.965 144.128 261.346 130.469C276.839 119.422 285.058 113.316 297.997 102.758C310.618 93.0944 317.334 85.1965 329.285 70.874C348.913 42.1004 353.272 27.1328 356.997 1.14734L273.265 62.5306C257.771 73.2756 247.561 80.2144 238.7 89.0506C224.477 105.616 220.231 112.965 213.372 125.702C207.205 139.008 204.33 145.871 202.049 155.202C198.746 146.188 195.925 139.583 189.534 125.702C182.039 110.544 175.783 102.736 163.908 89.0506C156.767 81.4843 144.494 73.6562 129.342 62.5306C101.246 42.35 84.5489 30.1451 46.8027 0.849365C51.934 35.3218 59.2027 53.5504 85.2418 82.7931C94.6813 93.7778 100.519 99.8023 114.742 109.611C127.156 119.079 133.606 123.721 147.817 135.535C158.323 144.093 162.799 148.273 169.569 155.202C186.048 177.855 193.566 190.876 202.049 216.287Z" fill="url(#paint1_radial_44_739)"/>
<path d="M194.897 331.008C189.972 298.002 185.412 276.763 176.72 238.039C172.052 217.929 167.245 206.724 157.054 186.787C146.043 171.331 138.581 162.978 118.019 149.838C76.3184 124.058 52.8484 109.608 1.21191 84.283C9.81015 98.1374 14.4783 105.909 23.8582 119.742C30.9466 133.159 41.8468 146.246 48.196 151.96C56.0168 158.087 97.7199 186.881 102.164 190.691C111.688 198.945 122.788 213.502 128.15 222.842C155.267 267.217 171.078 289.742 194.897 331.008Z" fill="url(#paint2_radial_44_739)"/>
<path d="M208.604 331.008L276.841 221.948C285.741 208.73 290.98 200.849 303.434 190.056C312.958 181.802 318.333 177.919 328.391 171.292C338.73 164.551 345.974 160.214 354.911 152.818C363.807 142.897 369.587 135.125 380.537 119.444L402.29 84.283C380.534 95.5175 366.646 102.905 339.416 117.656C318.055 129.416 306.205 136.469 285.482 149.838C266.927 161.606 258.902 169.986 247.043 186.787C236.653 205.369 232.566 216.792 226.781 238.039C218.514 273.911 214.586 294.273 208.604 331.008Z" stroke="url(#paint3_radial_44_739)" stroke-width="0.595954"/>
<path d="M202.049 216.287C208.009 197.93 212.316 188.088 222.907 171.888C236.567 153.249 244.965 144.128 261.346 130.469C276.839 119.422 285.058 113.316 297.997 102.758C310.618 93.0944 317.334 85.1965 329.285 70.874C348.913 42.1004 353.272 27.1328 356.997 1.14734L273.265 62.5306C257.771 73.2756 247.561 80.2144 238.7 89.0506C224.477 105.616 220.231 112.965 213.372 125.702C207.205 139.008 204.33 145.871 202.049 155.202C198.746 146.188 195.925 139.583 189.534 125.702C182.039 110.544 175.783 102.736 163.908 89.0506C156.767 81.4843 144.494 73.6562 129.342 62.5306C101.246 42.35 84.5489 30.1451 46.8027 0.849365C51.934 35.3218 59.2027 53.5504 85.2418 82.7931C94.6813 93.7778 100.519 99.8023 114.742 109.611C127.156 119.079 133.606 123.721 147.817 135.535C158.323 144.093 162.799 148.273 169.569 155.202C186.048 177.855 193.566 190.876 202.049 216.287Z" stroke="url(#paint4_radial_44_739)" stroke-width="0.595954"/>
<path d="M194.897 331.008C189.972 298.002 185.412 276.763 176.72 238.039C172.052 217.929 167.245 206.724 157.054 186.787C146.043 171.331 138.581 162.978 118.019 149.838C76.3184 124.058 52.8484 109.608 1.21191 84.283C9.81015 98.1374 14.4783 105.909 23.8582 119.742C30.9466 133.159 41.8468 146.246 48.196 151.96C56.0168 158.087 97.7199 186.881 102.164 190.691C111.688 198.945 122.788 213.502 128.15 222.842C155.267 267.217 171.078 289.742 194.897 331.008Z" stroke="url(#paint5_radial_44_739)" stroke-width="0.595954"/>
<defs>
<radialGradient id="paint0_radial_44_739" cx="0" cy="0" r="1" gradientUnits="userSpaceOnUse" gradientTransform="translate(201.751 165.929) rotate(90) scale(165.079 200.539)">
<stop stop-color="#DF4AC7"/>
<stop offset="1" stop-color="#F6EDF7"/>
</radialGradient>
<radialGradient id="paint1_radial_44_739" cx="0" cy="0" r="1" gradientUnits="userSpaceOnUse" gradientTransform="translate(201.751 165.929) rotate(90) scale(165.079 200.539)">
<stop stop-color="#DF4AC7"/>
<stop offset="1" stop-color="#F6EDF7"/>
</radialGradient>
<radialGradient id="paint2_radial_44_739" cx="0" cy="0" r="1" gradientUnits="userSpaceOnUse" gradientTransform="translate(201.751 165.929) rotate(90) scale(165.079 200.539)">
<stop stop-color="#DF4AC7"/>
<stop offset="1" stop-color="#F6EDF7"/>
</radialGradient>
<radialGradient id="paint3_radial_44_739" cx="0" cy="0" r="1" gradientUnits="userSpaceOnUse" gradientTransform="translate(201.751 165.929) rotate(90) scale(165.079 200.539)">
<stop stop-color="#DF4AC7"/>
<stop offset="1" stop-color="#F6EDF7"/>
</radialGradient>
<radialGradient id="paint4_radial_44_739" cx="0" cy="0" r="1" gradientUnits="userSpaceOnUse" gradientTransform="translate(201.751 165.929) rotate(90) scale(165.079 200.539)">
<stop stop-color="#DF4AC7"/>
<stop offset="1" stop-color="#F6EDF7"/>
</radialGradient>
<radialGradient id="paint5_radial_44_739" cx="0" cy="0" r="1" gradientUnits="userSpaceOnUse" gradientTransform="translate(201.751 165.929) rotate(90) scale(165.079 200.539)">
<stop stop-color="#DF4AC7"/>
<stop offset="1" stop-color="#F6EDF7"/>
</radialGradient>
</defs>
</svg>
