<svg width="513" height="128" viewBox="0 0 513 128" fill="none" xmlns="http://www.w3.org/2000/svg">
<path d="M58.6228 110L77.6543 79.5826C80.1366 75.8958 81.5977 73.698 85.0713 70.6876C87.7275 68.3855 89.2266 67.3024 92.0319 65.4544C94.9155 63.5741 96.9358 62.3647 99.4284 60.3017C101.909 57.5349 103.521 55.3672 106.576 50.9937L112.642 41.187C106.575 44.3204 102.701 46.3809 95.1069 50.495C89.1492 53.7747 85.844 55.7419 80.0644 59.4706C74.8894 62.7529 72.651 65.0901 69.3436 69.7759C66.4457 74.9585 65.3058 78.1444 63.6923 84.0704C61.3867 94.0752 60.2911 99.7542 58.6228 110Z" fill="url(#paint0_radial_40_511)"/>
<path d="M56.7944 78.0036C58.4569 72.8838 59.6579 70.1386 62.6119 65.6206C66.4217 60.4221 68.764 57.878 73.3328 54.0687C77.6538 50.9873 79.9462 49.2845 83.5549 46.3397C87.0747 43.6446 88.948 41.4418 92.2812 37.4472C97.7555 29.4221 98.9714 25.2476 100.01 18.0001L76.657 35.1202C72.3356 38.117 69.488 40.0523 67.0166 42.5167C63.0497 47.1369 61.8654 49.1866 59.9525 52.7389C58.2324 56.4502 57.4306 58.3642 56.7944 60.9666C55.8733 58.4527 55.0864 56.6105 53.3039 52.7389C51.2135 48.5114 49.4687 46.3337 46.1567 42.5167C44.1652 40.4065 40.7421 38.2232 36.5162 35.1202C28.6799 29.4917 24.0231 26.0877 13.4955 17.917C14.9267 27.5315 16.9539 32.6156 24.2164 40.7715C26.8491 43.8352 28.4774 45.5155 32.444 48.2511C35.9065 50.8917 37.7054 52.1865 41.6689 55.4815C44.5991 57.8682 45.8476 59.0341 47.7357 60.9666C52.3318 67.2847 54.4284 70.9163 56.7944 78.0036Z" fill="url(#paint1_radial_40_511)"/>
<path d="M54.7998 110C53.4262 100.794 52.1542 94.8706 49.7302 84.0704C48.4281 78.4615 47.0874 75.3364 44.2451 69.7759C41.174 65.4652 39.0929 63.1355 33.3581 59.4706C21.7276 52.2805 15.1817 48.2504 0.780029 41.187C3.17812 45.0511 4.48009 47.2187 7.09618 51.0768C9.07318 54.8188 12.1133 58.4689 13.8841 60.0626C16.0654 61.7714 27.6966 69.8021 28.9361 70.8646C31.5924 73.1667 34.6883 77.2269 36.1837 79.8319C43.7467 92.2083 48.1564 98.4905 54.7998 110Z" fill="url(#paint2_radial_40_511)"/>
<path d="M58.6228 110L77.6543 79.5826C80.1366 75.8958 81.5977 73.698 85.0713 70.6876C87.7275 68.3855 89.2266 67.3024 92.0319 65.4544C94.9155 63.5741 96.9358 62.3647 99.4284 60.3017C101.909 57.5349 103.521 55.3672 106.576 50.9937L112.642 41.187C106.575 44.3204 102.701 46.3809 95.1069 50.495C89.1492 53.7747 85.844 55.7419 80.0644 59.4706C74.8894 62.7529 72.651 65.0901 69.3436 69.7759C66.4457 74.9585 65.3058 78.1444 63.6923 84.0704C61.3867 94.0752 60.2911 99.7542 58.6228 110Z" stroke="url(#paint3_radial_40_511)" stroke-width="0.166215"/>
<path d="M56.7944 78.0036C58.4569 72.8838 59.6579 70.1386 62.6119 65.6206C66.4217 60.4221 68.764 57.878 73.3328 54.0687C77.6538 50.9873 79.9462 49.2845 83.5549 46.3397C87.0747 43.6446 88.948 41.4418 92.2812 37.4472C97.7555 29.4221 98.9714 25.2476 100.01 18.0001L76.657 35.1202C72.3356 38.117 69.488 40.0523 67.0166 42.5167C63.0497 47.1369 61.8654 49.1866 59.9525 52.7389C58.2324 56.4502 57.4306 58.3642 56.7944 60.9666C55.8733 58.4527 55.0864 56.6105 53.3039 52.7389C51.2135 48.5114 49.4687 46.3337 46.1567 42.5167C44.1652 40.4065 40.7421 38.2232 36.5162 35.1202C28.6799 29.4917 24.0231 26.0877 13.4955 17.917C14.9267 27.5315 16.9539 32.6156 24.2164 40.7715C26.8491 43.8352 28.4774 45.5155 32.444 48.2511C35.9065 50.8917 37.7054 52.1865 41.6689 55.4815C44.5991 57.8682 45.8476 59.0341 47.7357 60.9666C52.3318 67.2847 54.4284 70.9163 56.7944 78.0036Z" stroke="url(#paint4_radial_40_511)" stroke-width="0.166215"/>
<path d="M54.7998 110C53.4262 100.794 52.1542 94.8706 49.7302 84.0704C48.4281 78.4615 47.0874 75.3364 44.2451 69.7759C41.174 65.4652 39.0929 63.1355 33.3581 59.4706C21.7276 52.2805 15.1817 48.2504 0.780029 41.187C3.17812 45.0511 4.48009 47.2187 7.09618 51.0768C9.07318 54.8188 12.1133 58.4689 13.8841 60.0626C16.0654 61.7714 27.6966 69.8021 28.9361 70.8646C31.5924 73.1667 34.6883 77.2269 36.1837 79.8319C43.7467 92.2083 48.1564 98.4905 54.7998 110Z" stroke="url(#paint5_radial_40_511)" stroke-width="0.166215"/>
<path d="M128.556 87.5V41.9407H146.324C150.316 41.9407 153.722 42.5698 156.542 43.8281C159.363 45.0864 161.532 46.9088 163.051 49.2952C164.569 51.6817 165.329 54.5237 165.329 57.8213C165.329 61.119 164.569 63.961 163.051 66.3475C161.532 68.6905 159.363 70.5129 156.542 71.8146C153.722 73.0729 150.316 73.702 146.324 73.702H132.135L135.064 70.643V87.5H128.556ZM135.064 71.2939L132.135 68.0397H146.129C150.294 68.0397 153.44 67.1502 155.566 65.3712C157.735 63.5922 158.82 61.0756 158.82 57.8213C158.82 54.5671 157.735 52.0505 155.566 50.2715C153.44 48.4925 150.294 47.603 146.129 47.603H132.135L135.064 44.3488V71.2939ZM173.344 87.5V53.0051H179.332V62.3773L178.746 60.0342C179.7 57.6478 181.306 55.8254 183.562 54.5671C185.818 53.3088 188.595 52.6797 191.893 52.6797V58.7325C191.633 58.6891 191.372 58.6675 191.112 58.6675C190.895 58.6675 190.678 58.6675 190.461 58.6675C187.12 58.6675 184.473 59.6654 182.521 61.6614C180.568 63.6573 179.592 66.5427 179.592 70.3176V87.5H173.344ZM214.636 87.8905C210.948 87.8905 207.694 87.1312 204.873 85.6125C202.096 84.0939 199.927 82.0112 198.365 79.3644C196.846 76.7176 196.087 73.6803 196.087 70.2525C196.087 66.8247 196.824 63.7875 198.3 61.1407C199.818 58.4939 201.879 56.4329 204.483 54.9576C207.13 53.439 210.102 52.6797 213.399 52.6797C216.74 52.6797 219.691 53.4173 222.251 54.8925C224.811 56.3678 226.807 58.4505 228.239 61.1407C229.714 63.7875 230.452 66.8898 230.452 70.4478C230.452 70.7081 230.43 71.0119 230.387 71.359C230.387 71.7061 230.365 72.0315 230.321 72.3353H200.968V67.8444H227.067L224.529 69.4064C224.572 67.1936 224.117 65.2193 223.162 63.4837C222.208 61.7481 220.884 60.403 219.192 59.4485C217.543 58.4505 215.612 57.9515 213.399 57.9515C211.23 57.9515 209.299 58.4505 207.607 59.4485C205.915 60.403 204.591 61.7698 203.637 63.5488C202.682 65.2844 202.205 67.2803 202.205 69.5366V70.578C202.205 72.8776 202.725 74.9386 203.767 76.761C204.852 78.54 206.349 79.9285 208.258 80.9264C210.167 81.9244 212.358 82.4234 214.831 82.4234C216.871 82.4234 218.715 82.0763 220.363 81.382C222.056 80.6878 223.531 79.6464 224.789 78.258L228.239 82.2932C226.677 84.1156 224.724 85.5041 222.381 86.4586C220.081 87.4132 217.5 87.8905 214.636 87.8905ZM235.491 87.5V83.4647L257.619 55.999L258.856 58.1468H235.881V53.0051H263.868V57.1054L241.739 84.5061L240.307 82.3583H264.388V87.5H235.491ZM287.602 87.8905C283.914 87.8905 280.66 87.1312 277.839 85.6125C275.062 84.0939 272.893 82.0112 271.331 79.3644C269.812 76.7176 269.053 73.6803 269.053 70.2525C269.053 66.8247 269.791 63.7875 271.266 61.1407C272.784 58.4939 274.846 56.4329 277.449 54.9576C280.096 53.439 283.068 52.6797 286.366 52.6797C289.707 52.6797 292.657 53.4173 295.217 54.8925C297.777 56.3678 299.773 58.4505 301.205 61.1407C302.68 63.7875 303.418 66.8898 303.418 70.4478C303.418 70.7081 303.396 71.0119 303.353 71.359C303.353 71.7061 303.331 72.0315 303.288 72.3353H273.934V67.8444H300.033L297.495 69.4064C297.538 67.1936 297.083 65.2193 296.128 63.4837C295.174 61.7481 293.85 60.403 292.158 59.4485C290.509 58.4505 288.578 57.9515 286.366 57.9515C284.196 57.9515 282.265 58.4505 280.573 59.4485C278.881 60.403 277.557 61.7698 276.603 63.5488C275.648 65.2844 275.171 67.2803 275.171 69.5366V70.578C275.171 72.8776 275.692 74.9386 276.733 76.761C277.818 78.54 279.315 79.9285 281.224 80.9264C283.133 81.9244 285.324 82.4234 287.797 82.4234C289.837 82.4234 291.681 82.0763 293.33 81.382C295.022 80.6878 296.497 79.6464 297.755 78.258L301.205 82.2932C299.643 84.1156 297.69 85.5041 295.347 86.4586C293.048 87.4132 290.466 87.8905 287.602 87.8905ZM330.513 52.6797C333.333 52.6797 335.806 53.222 337.932 54.3068C340.102 55.3915 341.794 57.0403 343.009 59.2532C344.224 61.4661 344.831 64.2647 344.831 67.6491V87.5H338.583V68.3651C338.583 65.0241 337.759 62.5075 336.11 60.8152C334.505 59.123 332.227 58.2769 329.276 58.2769C327.063 58.2769 325.132 58.7108 323.484 59.5786C321.835 60.4464 320.555 61.7264 319.644 63.4186C318.776 65.1108 318.342 67.2153 318.342 69.7319V87.5H312.094V53.0051H318.082V62.3122L317.105 59.839C318.233 57.5827 319.969 55.8254 322.312 54.5671C324.655 53.3088 327.389 52.6797 330.513 52.6797ZM371.429 87.8905C367.915 87.8905 364.769 87.1312 361.992 85.6125C359.258 84.0939 357.111 82.0112 355.549 79.3644C353.987 76.7176 353.206 73.6803 353.206 70.2525C353.206 66.8247 353.987 63.7875 355.549 61.1407C357.111 58.4939 359.258 56.4329 361.992 54.9576C364.769 53.439 367.915 52.6797 371.429 52.6797C374.553 52.6797 377.33 53.3088 379.76 54.5671C382.233 55.782 384.142 57.6044 385.488 60.0342L380.736 63.0932C379.608 61.401 378.22 60.1644 376.571 59.3834C374.966 58.559 373.23 58.1468 371.364 58.1468C369.108 58.1468 367.09 58.6458 365.311 59.6437C363.532 60.6417 362.122 62.0519 361.081 63.8742C360.039 65.6532 359.519 67.7793 359.519 70.2525C359.519 72.7258 360.039 74.8736 361.081 76.6959C362.122 78.5183 363.532 79.9285 365.311 80.9264C367.09 81.9244 369.108 82.4234 371.364 82.4234C373.23 82.4234 374.966 82.0329 376.571 81.2519C378.22 80.4275 379.608 79.1692 380.736 77.4769L385.488 80.4708C384.142 82.8573 382.233 84.7014 379.76 86.0031C377.33 87.2614 374.553 87.8905 371.429 87.8905ZM408.428 87.8905C404.74 87.8905 401.486 87.1312 398.666 85.6125C395.889 84.0939 393.719 82.0112 392.157 79.3644C390.639 76.7176 389.879 73.6803 389.879 70.2525C389.879 66.8247 390.617 63.7875 392.092 61.1407C393.611 58.4939 395.672 56.4329 398.275 54.9576C400.922 53.439 403.894 52.6797 407.192 52.6797C410.533 52.6797 413.483 53.4173 416.043 54.8925C418.603 56.3678 420.599 58.4505 422.031 61.1407C423.506 63.7875 424.244 66.8898 424.244 70.4478C424.244 70.7081 424.222 71.0119 424.179 71.359C424.179 71.7061 424.157 72.0315 424.114 72.3353H394.761V67.8444H420.86L418.321 69.4064C418.365 67.1936 417.909 65.2193 416.955 63.4837C416 61.7481 414.677 60.403 412.984 59.4485C411.336 58.4505 409.405 57.9515 407.192 57.9515C405.022 57.9515 403.091 58.4505 401.399 59.4485C399.707 60.403 398.384 61.7698 397.429 63.5488C396.475 65.2844 395.997 67.2803 395.997 69.5366V70.578C395.997 72.8776 396.518 74.9386 397.559 76.761C398.644 78.54 400.141 79.9285 402.05 80.9264C403.959 81.9244 406.15 82.4234 408.624 82.4234C410.663 82.4234 412.507 82.0763 414.156 81.382C415.848 80.6878 417.323 79.6464 418.582 78.258L422.031 82.2932C420.469 84.1156 418.517 85.5041 416.173 86.4586C413.874 87.4132 411.292 87.8905 408.428 87.8905ZM444.411 87.5L465.043 41.9407H471.486L492.183 87.5H485.349L466.93 45.5854H469.534L451.115 87.5H444.411ZM453.198 76.1102L454.955 70.9034H480.598L482.486 76.1102H453.198ZM498.98 87.5V41.9407H505.488V87.5H498.98Z" fill="url(#paint6_radial_40_511)"/>
<defs>
<radialGradient id="paint0_radial_40_511" cx="0" cy="0" r="1" gradientUnits="userSpaceOnUse" gradientTransform="translate(56.7113 63.9584) rotate(90) scale(46.0414 55.9312)">
<stop stop-color="#951B81"/>
<stop offset="1" stop-color="#2F0929"/>
</radialGradient>
<radialGradient id="paint1_radial_40_511" cx="0" cy="0" r="1" gradientUnits="userSpaceOnUse" gradientTransform="translate(56.7113 63.9584) rotate(90) scale(46.0414 55.9312)">
<stop stop-color="#951B81"/>
<stop offset="1" stop-color="#2F0929"/>
</radialGradient>
<radialGradient id="paint2_radial_40_511" cx="0" cy="0" r="1" gradientUnits="userSpaceOnUse" gradientTransform="translate(56.7113 63.9584) rotate(90) scale(46.0414 55.9312)">
<stop stop-color="#951B81"/>
<stop offset="1" stop-color="#2F0929"/>
</radialGradient>
<radialGradient id="paint3_radial_40_511" cx="0" cy="0" r="1" gradientUnits="userSpaceOnUse" gradientTransform="translate(56.7113 63.9584) rotate(90) scale(46.0414 55.9312)">
<stop stop-color="#951B81"/>
<stop offset="1" stop-color="#2F0929"/>
</radialGradient>
<radialGradient id="paint4_radial_40_511" cx="0" cy="0" r="1" gradientUnits="userSpaceOnUse" gradientTransform="translate(56.7113 63.9584) rotate(90) scale(46.0414 55.9312)">
<stop stop-color="#951B81"/>
<stop offset="1" stop-color="#2F0929"/>
</radialGradient>
<radialGradient id="paint5_radial_40_511" cx="0" cy="0" r="1" gradientUnits="userSpaceOnUse" gradientTransform="translate(56.7113 63.9584) rotate(90) scale(46.0414 55.9312)">
<stop stop-color="#951B81"/>
<stop offset="1" stop-color="#2F0929"/>
</radialGradient>
<radialGradient id="paint6_radial_40_511" cx="0" cy="0" r="1" gradientUnits="userSpaceOnUse" gradientTransform="translate(317.222 64) scale(195.5 39.5)">
<stop stop-color="#951B81"/>
<stop offset="1" stop-color="#2F0929"/>
</radialGradient>
</defs>
</svg>
